<svg version="1.2" xmlns="http://www.w3.org/2000/svg" viewBox="0 0 200 57" width="200" height="57">
	<path fill-rule="evenodd" fill="#e46622" d="m104.5 39.5c37.4-1.1 63.2 1.2 94.9 5.2l-1.3 0.9c-26.5-1.9-43.4-4.8-73-4-47.5 1.3-87.3 7.6-125.1 15.1l1.1-5.3q12.8-2.5 25.6-4.4 13-2 25.9-3.4 12.9-1.5 25.9-2.5 13-1.1 26-1.6z"/>
	<path fill-rule="evenodd" fill="#19882f" d="m64.5 8.1l-4.4 4.2q-4.5-4.7-10.1-4.7-1.1 0-2.2 0.2-1.1 0.2-2.1 0.6-1 0.4-1.9 1.1-1 0.5-1.8 1.3-0.7 0.8-1.4 1.7-0.6 0.9-1 2-0.4 0.9-0.6 2-0.2 1.1-0.2 2.2 0 0.8 0 1.5 0.1 0.8 0.3 1.5 0.1 0.8 0.4 1.4 0.3 0.7 0.6 1.4 0.4 0.7 0.9 1.2 0.4 0.6 0.9 1.1 0.5 0.5 1.1 0.9 0.6 0.5 1.2 0.8 0.7 0.3 1.4 0.6 0.7 0.3 1.5 0.5 0.7 0.2 1.4 0.3 0.8 0.1 1.6 0.1 0.6 0 1.2-0.1 0.6-0.1 1.3-0.2 0.7-0.1 1.3-0.3 0.6-0.2 1.2-0.5 0.7-0.3 1.4-0.7 0.6-0.4 1.2-0.9 0.6-0.4 1.3-1 0.5-0.4 1.1-1l4.2 4.4q-0.8 0.7-1.5 1.4-0.9 0.7-1.8 1.4-0.8 0.6-1.7 1.1-1 0.5-1.9 1-0.9 0.4-1.8 0.6-0.9 0.3-1.9 0.5-0.9 0.2-1.8 0.2-1 0.1-2 0.1-7.6 0-12.5-4.9-5-4.8-5-12.4 0-1.1 0.2-2.3 0.1-1.1 0.4-2.2 0.3-1.1 0.7-2.2 0.5-1 1-2 0.6-1 1.3-1.9 0.7-0.8 1.5-1.6 0.8-0.8 1.7-1.4 0.9-0.7 1.9-1.2 1.1-0.6 2.1-1 1.1-0.5 2.2-0.7 1.1-0.3 2.3-0.5 1.2-0.1 2.4-0.1 0.9 0 2 0.1 1 0.1 2 0.3 1 0.2 1.9 0.5 1 0.4 1.9 0.8 1 0.4 1.9 0.9 0.8 0.5 1.7 1.2 0.8 0.6 1.6 1.3 0.7 0.7 1.4 1.4zm-60.6 28.7v-35.5h11.4q6.6 0 8.6 0.5 0.8 0.2 1.4 0.5 0.8 0.3 1.4 0.8 0.7 0.4 1.3 1 0.5 0.6 1 1.2 0.5 0.7 0.9 1.5 0.4 0.8 0.7 1.8 0.3 0.9 0.4 1.8 0.1 0.9 0.1 1.8 0 0.7-0.1 1.4 0 0.7-0.2 1.4-0.1 0.7-0.3 1.3-0.3 0.7-0.6 1.4-0.2 0.5-0.6 1-0.3 0.4-0.7 0.9-0.4 0.4-0.8 0.8-0.4 0.4-0.9 0.7-0.4 0.4-0.9 0.6-0.4 0.3-0.9 0.5-0.4 0.2-0.9 0.3-0.5 0.2-1 0.3-0.9 0.2-1.9 0.3-0.9 0.1-1.9 0.2-0.9 0.1-1.8 0.1c-0.6 0-5.9 0-6.5 0v13.3zm140.4-36l-9.1 36h-10l-5.7-22.2-5.6 22.2h-10l-9.1-36h9.4l5 24.1 6-24.1h9l5.8 24.2 5.2-24.2zm51.7 8.8l-13.7 37.2h-9.1l4.1-10.6-9.9-26.6h8.9l5.7 17.1 5.3-17.1zm-36.7 24.4q-0.9 0.6-1.5 1.3-0.3 0.1-0.5 0.3-0.2 0.2-0.4 0.3-0.3 0.1-0.5 0.3-0.2 0.1-0.5 0.2-0.6 0.3-1.3 0.5-0.6 0.3-1.2 0.5-0.7 0.1-1.4 0.2-0.6 0-1.3 0-0.9 0-1.7-0.2-0.8-0.1-1.6-0.5-0.8-0.2-1.5-0.7-0.6-0.5-1.3-1.1-0.5-0.6-1-1.3-0.4-0.7-0.8-1.4-0.3-0.9-0.4-1.7-0.1-0.8-0.1-1.7 0-0.6 0-1.2 0.1-0.7 0.2-1.3 0.2-0.6 0.5-1.2 0.2-0.6 0.5-1.1 0.3-0.5 0.7-1 0.4-0.4 0.8-0.8 0.5-0.3 0.9-0.7 0.5-0.3 1.1-0.5 0.6-0.3 1.3-0.5 0.6-0.3 1.3-0.5 0.7-0.2 1.5-0.3 0.7-0.1 1.4-0.3 3.2-0.4 6.9-0.7v-0.1q0-0.5-0.1-0.9-0.1-0.5-0.3-0.9-0.3-0.4-0.6-0.8-0.3-0.3-0.7-0.5-0.6-0.2-1.2-0.4-0.6-0.2-1.2-0.3-0.7-0.1-1.3-0.2-0.6 0-1.3 0-0.4 0-0.8 0.1-0.5 0-1 0.1-0.4 0-0.9 0.2-0.4 0.1-0.8 0.2-0.5 0.1-1 0.3-0.5 0.1-1 0.3-0.5 0.2-1 0.4-0.5 0.2-0.9 0.4h-0.7v-6.6q1.2-0.4 4.1-0.9 0.7-0.1 1.3-0.2 0.7 0 1.4-0.1 0.8-0.1 1.5-0.1 0.7 0 1.4 0 7 0 10.3 2.3 3.2 2.3 3.2 7.1v18.5h-8.4v-2.9zm0-4.2v-5.7q-2.2 0.2-3.5 0.4-0.4 0-0.7 0.1-0.3 0.1-0.6 0.1-0.4 0.1-0.7 0.2-0.3 0.1-0.7 0.3-0.2 0-0.4 0.1-0.3 0.1-0.5 0.3-0.2 0.1-0.4 0.3-0.2 0.2-0.4 0.4-0.1 0.2-0.3 0.5 0 0.2-0.2 0.5-0.1 0.3-0.1 0.6 0 0.2 0 0.5 0 1.9 1 2.6 0.4 0.2 0.8 0.3 0.3 0.2 0.7 0.3 0.4 0.1 0.8 0.1 0.4 0.1 0.8 0 0.3 0 0.5 0 0.4-0.1 0.7-0.2 0.2 0 0.5-0.1 0.3-0.1 0.6-0.2 0.2-0.1 0.5-0.3 0.3-0.1 0.6-0.3 0.2-0.2 0.5-0.4 0.2-0.2 0.5-0.4zm-65-4c0 1.8 0.2 3.5-0.5 4.8q-0.2 0.5-0.5 1-0.3 0.4-0.6 0.9-0.4 0.4-0.8 0.8-0.4 0.3-0.8 0.7-0.5 0.4-1 0.7-0.6 0.4-1.1 0.7-0.6 0.3-1.2 0.5-0.6 0.2-1.2 0.4-0.8 0.2-1.5 0.3-0.8 0.2-1.5 0.2-0.8 0.1-1.6 0.2-0.8 0-1.6 0h-14.4v-36.1c0.5 0 13.8 0 14.2 0q0.8 0.1 1.6 0.1 0.7 0 1.5 0.1 0.7 0.1 1.4 0.1 0.6 0.1 1.1 0.3 0.5 0 1 0.2 0.4 0.2 0.9 0.4 0.4 0.2 0.9 0.4 0.4 0.2 0.9 0.6 0.4 0.2 0.7 0.6 0.4 0.3 0.7 0.7 0.4 0.5 0.6 0.9 0.3 0.5 0.4 0.9 0.2 0.5 0.3 1 0.2 0.5 0.2 1.1 0 0.5 0 1 0 0.6 0 1.3-0.1 0.6-0.3 1.1-0.1 0.7-0.4 1.2-0.2 0.6-0.6 1.1-0.3 0.5-0.7 0.9-0.4 0.5-0.9 0.9-0.4 0.4-0.9 0.7-0.5 0.3-1.1 0.5v0.2q0.8 0.2 1.5 0.4 0.7 0.3 1.4 0.6 0.7 0.4 1.3 0.8 0.6 0.5 1.2 1.1c1.3 1.4 1.3 3.3 1.4 5.7zm-11-14.6q0-0.3-0.1-0.5 0-0.2-0.1-0.5 0-0.2-0.1-0.4-0.1-0.2-0.2-0.4-0.1-0.2-0.2-0.4-0.2-0.3-0.4-0.5-0.2-0.1-0.4-0.2-0.2-0.2-0.4-0.2-0.2-0.2-0.5-0.3-0.3 0-0.5-0.1-0.3-0.1-0.5-0.1-0.3 0-0.6 0-1.2 0-3.7 0h-0.6v7.6h1.2c1.5 0 2.6 0 3.3-0.1q0.2 0 0.4 0 0.3 0 0.5-0.1 0.2-0.1 0.5-0.1 0.2-0.1 0.4-0.2 0.3-0.1 0.5-0.3 0.2-0.1 0.4-0.3 0.2-0.2 0.4-0.4 0.1-0.2 0.3-0.4 0-0.3 0.1-0.5 0.1-0.3 0.1-0.6 0.1-0.2 0.1-0.5 0.1-0.2 0.1-0.5zm2.2 14.6q0.1-0.3 0-0.6 0-0.4-0.1-0.7-0.1-0.4-0.2-0.7-0.2-0.3-0.4-0.6-0.1-0.2-0.4-0.5-0.2-0.2-0.5-0.3-0.2-0.2-0.5-0.4-0.3-0.1-0.6-0.2-0.3-0.1-0.6-0.2-0.2-0.1-0.5-0.1-0.3 0-0.6 0-0.3-0.1-0.6-0.1c-0.9 0-2.2 0-3.8 0h-1.7v9h0.5q3.5 0 4.9 0 0.3 0 0.7-0.1 0.3 0 0.7-0.1 0.3-0.1 0.6-0.2 0.4-0.1 0.7-0.3 0.3-0.1 0.6-0.2 0.3-0.2 0.5-0.4 0.2-0.2 0.4-0.4 0.2-0.3 0.3-0.6 0.2-0.2 0.3-0.5 0.1-0.3 0.2-0.6 0-0.2 0.1-0.5 0-0.4 0-0.7zm-74.6-18.3v10.1h3.9q4.3 0 5.7-0.6 0.3-0.1 0.7-0.3 0.3-0.2 0.6-0.4 0.2-0.2 0.5-0.5 0.2-0.2 0.4-0.5 0.2-0.4 0.4-0.6 0.2-0.4 0.2-0.7 0.2-0.4 0.2-0.8 0.1-0.3 0.1-0.7 0-0.4-0.1-0.9-0.1-0.4-0.2-0.8-0.2-0.5-0.4-0.8-0.2-0.3-0.5-0.7-0.2-0.3-0.6-0.6-0.3-0.2-0.7-0.4-0.3-0.2-0.7-0.4-0.5-0.1-0.9-0.2-0.6-0.1-1.2-0.1-0.7 0-1.3-0.1-0.7 0-1.3 0-0.7 0-1.3 0z"/>
</svg>